<svg width="26" height="27" viewBox="0 0 26 27" fill="none" xmlns="http://www.w3.org/2000/svg">
<path d="M12.3104 14.4307C12.4323 14.5526 12.5014 14.7172 12.5014 14.8898C12.5014 15.0625 12.4323 15.228 12.3104 15.3499L6.99967 20.6606C6.74577 20.9135 6.33545 20.9125 6.08156 20.6596C5.82867 20.4057 5.82765 19.9954 6.08054 19.7415L11.3913 14.4307C11.5132 14.3089 11.6787 14.2398 11.8514 14.2398C12.024 14.2398 12.1886 14.3089 12.3104 14.4307L12.3104 14.4307ZM14.6088 13.0515L19.9195 7.74076C20.1724 7.48685 20.1714 7.07654 19.9185 6.82265C19.6646 6.56975 19.2543 6.56874 19.0004 6.82163L13.6897 12.1324C13.4357 12.3863 13.4357 12.7976 13.6897 13.0515C13.9436 13.3054 14.3549 13.3054 14.6088 13.0515L14.6088 13.0515ZM8.54844 20.5835C8.5393 21.1918 8.29352 21.7738 7.8629 22.2044L6.61266 23.4536C5.69455 24.3717 4.20665 24.3707 3.28856 23.4526C2.37048 22.5345 2.36941 21.0466 3.28755 20.1285L4.53677 18.8793V18.8783C4.96738 18.4466 5.54934 18.2008 6.15974 18.1917L7.28913 17.0613C5.9942 16.654 4.57941 16.9994 3.61767 17.9591L2.36743 19.2083C0.941488 20.6353 0.941488 22.9469 2.36743 24.3738C3.79439 25.7997 6.10597 25.7997 7.53285 24.3738L8.78207 23.1245V23.1235C9.74082 22.1617 10.0871 20.748 9.67988 19.4521L8.54844 20.5835ZM14.7164 9.63408C13.4195 9.22681 12.0046 9.57415 11.0429 10.5339L9.79264 11.7841C8.83389 12.7449 8.48859 14.1597 8.89687 15.4546L10.0313 14.3201C10.0394 13.7128 10.2832 13.1328 10.7118 12.7032L11.962 11.453C12.3926 11.0234 12.9736 10.7776 13.582 10.7695L14.7164 9.63408ZM18.4672 3.1086L17.218 4.35782V4.35883C16.2592 5.31961 15.9139 6.73438 16.3222 8.02821L17.4516 6.89883C17.4607 6.29048 17.7065 5.70852 18.1371 5.27788L19.3863 4.02866H19.3874C20.3055 3.11055 21.7934 3.11156 22.7114 4.02968C23.6295 4.94779 23.6306 6.43569 22.7125 7.35378L21.4632 8.603V8.60401C21.0326 9.03361 20.4517 9.27942 19.8433 9.28753L18.7089 10.422C20.0058 10.8293 21.4207 10.4829 22.3824 9.52317L23.6316 8.27394H23.6326C25.0586 6.84699 25.0586 4.5354 23.6326 3.10852C22.2057 1.68258 19.8941 1.68258 18.4672 3.10852L18.4672 3.1086ZM15.9718 13.1602C15.9637 13.7685 15.7179 14.3495 15.2883 14.7791L14.038 16.0293C13.6074 16.46 13.0255 16.7058 12.4171 16.7149L11.2836 17.8483C12.5806 18.2546 13.9954 17.9083 14.9572 16.9485L16.2074 15.6983C17.1662 14.7375 17.5115 13.3227 17.1042 12.0278L15.9718 13.1602Z" fill="#00D4AE"/>
</svg>
