<svg width="29" height="30" viewBox="0 0 29 30" fill="none" xmlns="http://www.w3.org/2000/svg">
<path d="M10.1204 28.0012H10.1499C12.2297 28.0012 14.2937 27.9785 16.3622 27.9173C17.9198 27.8743 19.5522 27.3543 21.0022 26.7166C25.4972 24.7296 27.9622 20.8067 28.1832 16.7751C28.2331 16.4239 28.2648 16.0671 28.2818 15.7102C28.5876 8.68121 22.3527 2.4813 15.0302 2.4813C11.8718 2.47903 8.81667 3.60618 6.41634 5.66115C4.01706 7.71493 2.43116 10.5595 1.94512 13.6802C1.46027 16.8024 2.10712 19.9944 3.77009 22.6792C3.74744 22.8831 3.68627 23.0791 3.58998 23.2592C2.71772 24.8112 1.7401 26.3109 0.725098 27.9752C3.68629 27.9752 6.58861 28.0012 9.46251 28.0012L10.1204 28.0012ZM3.694 26.328C4.15846 25.5804 4.60138 24.8429 5.03638 24.0896H5.03751C5.24255 23.7146 5.37397 23.3045 5.42266 22.8797L5.49176 22.2997L5.18703 21.8069H5.18816C3.73477 19.4575 3.16837 16.6661 3.59203 13.9372C4.01682 11.2071 5.40227 8.71837 7.50036 6.92182C9.59721 5.12405 12.2683 4.1351 15.0302 4.13397C18.2541 4.15889 21.3287 5.49447 23.5455 7.83495C25.6536 10.0417 26.7355 12.8113 26.6108 15.6354C26.5983 15.9401 26.57 16.2448 26.5258 16.5461V16.6877C26.3287 20.391 24.011 23.5752 20.3282 25.2053C18.7978 25.876 17.4497 26.2317 16.3068 26.2611C14.4977 26.3166 12.5368 26.3427 10.1794 26.3449H9.46231H5.1677L3.694 26.328Z" fill="#00D4AE"/>
<path d="M15.0336 16.8249C15.6758 16.8317 16.2581 16.4499 16.5085 15.8597C16.7588 15.2684 16.6285 14.5842 16.1766 14.1276C15.7257 13.6711 15.0426 13.5329 14.449 13.7765C13.8554 14.0212 13.468 14.5989 13.468 15.2412C13.4737 16.1067 14.1681 16.809 15.0336 16.8249Z" fill="#00D4AE"/>
<path d="M11.0371 15.2615C11.0428 14.6237 10.661 14.0448 10.0731 13.7979C9.48405 13.5509 8.80548 13.6834 8.35235 14.1332C7.90036 14.5829 7.7633 15.2614 8.00798 15.8516C8.25153 16.4418 8.82699 16.8259 9.46589 16.8247C10.3291 16.8213 11.0292 16.1246 11.0371 15.2615Z" fill="#00D4AE"/>
<path d="M20.6399 16.8249C21.2799 16.8272 21.8599 16.4431 22.1069 15.8507C22.3527 15.2593 22.219 14.5774 21.767 14.1231C21.3139 13.67 20.6331 13.5329 20.0406 13.7776C19.4482 14.0223 19.0619 14.6 19.0619 15.2412C19.0619 16.1135 19.7676 16.8215 20.6399 16.8249Z" fill="#00D4AE"/>
</svg>
