<svg width="39" height="40" viewBox="0 0 39 40" fill="none" xmlns="http://www.w3.org/2000/svg">
<path d="M16.7883 13.2867C16.7883 11.7999 17.9934 10.5948 19.4802 10.5948C20.9671 10.5948 22.1721 11.7999 22.1721 13.2867C22.1721 15.1484 20.9671 16.5392 19.4802 16.5392C17.9934 16.5392 16.7883 15.159 16.7883 13.2867Z" fill="#00D4AE"/>
<path d="M13.013 21.387C13.4412 19.3501 14.893 17.8069 16.8338 17.0755C16.9847 17.0192 17.1553 17.0847 17.236 17.2233C18.1196 18.7529 18.0038 18.5517 18.4243 19.2799L19.0702 18.1617L19.0413 18.113L18.7335 17.5798C18.6756 17.4777 18.7472 17.3513 18.8646 17.3513H20.0955C20.2128 17.3513 20.2859 17.4777 20.2265 17.5798L19.9188 18.113L19.8898 18.1617L20.5357 19.2799C20.9714 18.5243 20.6759 19.0377 21.724 17.2233C21.8048 17.0847 21.9754 17.0192 22.1262 17.0755C24.0671 17.8083 25.5189 19.35 25.947 21.387C25.9912 21.5957 25.8358 21.7938 25.6225 21.7938H13.339C13.1242 21.7938 12.9689 21.5957 13.013 21.387H13.013Z" fill="#00D4AE"/>
<path d="M19.8596 23.6096L20.3943 25.255C20.4476 25.4195 20.6015 25.5307 20.7737 25.5307H22.5043C22.8912 25.5307 23.0527 26.0258 22.7389 26.2528L21.3389 27.269C21.1987 27.371 21.1408 27.5508 21.1941 27.7153L21.7289 29.3607C21.8492 29.7293 21.4272 30.034 21.1149 29.807L19.7149 28.7909C19.5748 28.6888 19.3859 28.6888 19.2457 28.7909L17.8457 29.807C17.5319 30.034 17.1114 29.7293 17.2317 29.3607L17.7665 27.7153C17.8198 27.5508 17.7619 27.371 17.6218 27.269L16.2217 26.2528C15.9079 26.0258 16.0694 25.5307 16.4563 25.5307H18.187C18.3606 25.5307 18.513 25.4195 18.5663 25.255L19.101 23.6096C19.2199 23.2425 19.7393 23.2425 19.8597 23.6096H19.8596Z" fill="#00D4AE"/>
<path d="M8.4415 23.6096L8.97623 25.255C9.02955 25.4195 9.18342 25.5307 9.35557 25.5307H11.0862C11.4732 25.5307 11.6346 26.0258 11.3208 26.2528L9.92078 27.269C9.78062 27.371 9.72274 27.5508 9.77606 27.7153L10.3108 29.3607C10.4311 29.7293 10.0091 30.034 9.69685 29.807L8.29683 28.7909C8.15667 28.6888 7.96776 28.6888 7.82762 28.7909L6.42759 29.807C6.11377 30.034 5.6933 29.7293 5.81366 29.3607L6.34839 27.7153C6.40171 27.5508 6.34382 27.371 6.20366 27.269L4.80364 26.2528C4.48981 26.0258 4.6513 25.5307 5.03825 25.5307H6.76887C6.94254 25.5307 7.09489 25.4195 7.14821 25.255L7.68294 23.6096C7.80177 23.2425 8.32277 23.2425 8.44161 23.6096H8.4415Z" fill="#00D4AE"/>
<path d="M31.3189 23.6096L31.8537 25.255C31.907 25.4195 32.0609 25.5307 32.233 25.5307H33.9636C34.3506 25.5307 34.5121 26.0258 34.1982 26.2528L32.7982 27.269C32.6581 27.371 32.6002 27.5508 32.6535 27.7153L33.1882 29.3607C33.3086 29.7293 32.8866 30.034 32.5743 29.807L31.1743 28.7909C31.0341 28.6888 30.8452 28.6888 30.7051 28.7909L29.305 29.807C28.9912 30.034 28.5707 29.7293 28.6911 29.3607L29.2258 27.7153C29.2791 27.5508 29.2213 27.371 29.0811 27.269L27.6811 26.2528C27.3673 26.0258 27.5287 25.5307 27.9157 25.5307H29.6463C29.82 25.5307 29.9723 25.4195 30.0257 25.255L30.5604 23.6096C30.6777 23.2425 31.1987 23.2425 31.319 23.6096H31.3189Z" fill="#00D4AE"/>
</svg>
