<svg width="117" height="60" viewBox="0 0 117 60" fill="none" xmlns="http://www.w3.org/2000/svg">
<circle cx="1.76471" cy="1.76471" r="1.76471" fill="#0046AF"/>
<circle cx="1.76471" cy="15.8824" r="1.76471" fill="#0046AF"/>
<circle cx="1.76471" cy="30" r="1.76471" fill="#0046AF"/>
<circle cx="1.76471" cy="44.1176" r="1.76471" fill="#0046AF"/>
<circle cx="1.76471" cy="58.2353" r="1.76471" fill="#0046AF"/>
<circle cx="15.8824" cy="1.76471" r="1.76471" fill="#0046AF"/>
<circle cx="15.8824" cy="15.8824" r="1.76471" fill="#0046AF"/>
<circle cx="15.8824" cy="30" r="1.76471" fill="#0046AF"/>
<circle cx="15.8824" cy="44.1176" r="1.76471" fill="#0046AF"/>
<circle cx="15.8824" cy="58.2353" r="1.76471" fill="#0046AF"/>
<circle cx="30.0001" cy="1.76471" r="1.76471" fill="#0046AF"/>
<circle cx="30.0001" cy="15.8824" r="1.76471" fill="#0046AF"/>
<circle cx="30.0001" cy="30" r="1.76471" fill="#0046AF"/>
<circle cx="30.0001" cy="44.1176" r="1.76471" fill="#0046AF"/>
<circle cx="30.0001" cy="58.2353" r="1.76471" fill="#0046AF"/>
<circle cx="44.1177" cy="1.76471" r="1.76471" fill="#0046AF"/>
<circle cx="44.1177" cy="15.8824" r="1.76471" fill="#0046AF"/>
<circle cx="44.1177" cy="30" r="1.76471" fill="#0046AF"/>
<circle cx="44.1177" cy="44.1176" r="1.76471" fill="#0046AF"/>
<circle cx="44.1177" cy="58.2353" r="1.76471" fill="#0046AF"/>
<circle cx="58.2353" cy="1.76471" r="1.76471" fill="#0046AF"/>
<circle cx="58.2353" cy="15.8824" r="1.76471" fill="#0046AF"/>
<circle cx="58.2353" cy="30" r="1.76471" fill="#0046AF"/>
<circle cx="58.2353" cy="44.1176" r="1.76471" fill="#0046AF"/>
<circle cx="58.2353" cy="58.2353" r="1.76471" fill="#0046AF"/>
<circle cx="72.353" cy="1.76471" r="1.76471" fill="#0046AF"/>
<circle cx="72.353" cy="15.8824" r="1.76471" fill="#0046AF"/>
<circle cx="72.353" cy="30" r="1.76471" fill="#0046AF"/>
<circle cx="72.353" cy="44.1176" r="1.76471" fill="#0046AF"/>
<circle cx="72.353" cy="58.2353" r="1.76471" fill="#0046AF"/>
<circle cx="86.4706" cy="1.76471" r="1.76471" fill="#0046AF"/>
<circle cx="86.4706" cy="15.8824" r="1.76471" fill="#0046AF"/>
<circle cx="86.4706" cy="30" r="1.76471" fill="#0046AF"/>
<circle cx="86.4706" cy="44.1176" r="1.76471" fill="#0046AF"/>
<circle cx="86.4706" cy="58.2353" r="1.76471" fill="#0046AF"/>
<circle cx="100.588" cy="1.76471" r="1.76471" fill="#0046AF"/>
<circle cx="100.588" cy="15.8824" r="1.76471" fill="#0046AF"/>
<circle cx="100.588" cy="30" r="1.76471" fill="#0046AF"/>
<circle cx="100.588" cy="44.1176" r="1.76471" fill="#0046AF"/>
<circle cx="100.588" cy="58.2353" r="1.76471" fill="#0046AF"/>
<circle cx="114.706" cy="1.76471" r="1.76471" fill="#0046AF"/>
<circle cx="114.706" cy="15.8824" r="1.76471" fill="#0046AF"/>
<circle cx="114.706" cy="30" r="1.76471" fill="#0046AF"/>
<circle cx="114.706" cy="44.1176" r="1.76471" fill="#0046AF"/>
<circle cx="114.706" cy="58.2353" r="1.76471" fill="#0046AF"/>
</svg>
