<svg width="28" height="29" viewBox="0 0 28 29" fill="none" xmlns="http://www.w3.org/2000/svg">
<path d="M5.83302 11.9292L2.67098 15.0792H2.67208C2.2138 15.5374 2.2138 16.279 2.67208 16.7362C3.12926 17.1934 3.87081 17.1934 4.32802 16.7362L4.66598 16.3862L4.66708 21.7412C4.66708 22.3854 5.1888 22.9082 5.83303 22.9082C6.47725 22.9082 7.00006 22.3854 7.00006 21.7412V16.3862L7.33803 16.7362C7.55787 16.9571 7.85538 17.0818 8.16708 17.0818C8.47771 17.0818 8.7763 16.9571 8.99504 16.7362C9.21597 16.5175 9.34067 16.2188 9.34067 15.9082C9.34067 15.5965 9.21598 15.299 8.99504 15.0792L5.83302 11.9292Z" fill="#00D4AE"/>
<path d="M14 9.59621L10.838 12.7462C10.3808 13.2034 10.3808 13.9449 10.838 14.4032C11.2963 14.8604 12.0379 14.8604 12.495 14.4032L12.833 14.0532V21.7412C12.833 22.3854 13.3558 22.9082 14 22.9082C14.6443 22.9082 15.1671 22.3854 15.1671 21.7412V14.0532L15.505 14.4032C15.7238 14.6242 16.0224 14.7478 16.333 14.7478C16.6447 14.7478 16.9422 14.6242 17.1621 14.4032C17.383 14.1834 17.5066 13.8859 17.5066 13.5742C17.5066 13.2636 17.383 12.965 17.1621 12.7462L14 9.59621Z" fill="#00D4AE"/>
<path d="M25.328 8.07916L22.167 4.92916L19.005 8.07916C18.5478 8.53744 18.5478 9.27902 19.005 9.7362C19.4622 10.1934 20.2037 10.1934 20.662 9.7362L21 9.3862V21.7412C21 22.3854 21.5228 22.9082 22.167 22.9082C22.8113 22.9082 23.333 22.3854 23.333 21.7412V9.3862L23.6709 9.7362H23.672C23.8908 9.95714 24.1894 10.0818 24.5 10.0818C24.8106 10.0818 25.1092 9.95715 25.328 9.7362C25.5489 9.51745 25.6736 9.21884 25.6736 8.90824C25.6736 8.59652 25.5489 8.29902 25.328 8.07919L25.328 8.07916Z" fill="#00D4AE"/>
</svg>
