<svg width="170" height="170" viewBox="0 0 170 170" fill="none" xmlns="http://www.w3.org/2000/svg">
<path d="M159.351 43.5459C160.872 46.3982 162.394 49.2506 163.535 52.2931L52.2931 163.535C49.2506 162.204 46.3982 160.872 43.5459 159.351L159.351 43.5459ZM61.991 166.957C65.604 167.908 69.0268 168.669 72.6398 169.239L169.239 72.6398C168.669 69.0268 167.908 65.4139 166.957 61.991L61.991 166.957ZM163.915 116.946L116.946 163.915C127.215 159.732 136.913 153.456 145.089 145.28C153.456 136.913 159.732 127.215 163.915 116.946ZM84.8098 170C89.5638 170 94.3177 169.62 98.8814 168.859L168.859 98.8814C169.62 94.1275 170 89.3736 170 84.8098L84.8098 170ZM0 85.7606L85.7606 0C81.0067 0 76.4429 0.380313 71.689 1.14094L1.14094 71.689C0.380313 76.4429 0 81.0067 0 85.7606ZM0.950783 97.7405C1.52125 101.353 2.28188 104.966 3.23266 108.389L108.579 3.23266C105.157 2.28188 101.544 1.52125 97.9306 0.950783L0.950783 97.7405ZM6.65548 118.087C7.98658 121.13 9.31767 123.982 11.0291 126.834L126.834 11.0291C123.982 9.50783 121.13 7.98658 118.087 6.65548L6.65548 118.087ZM5.89485 53.8143L53.8143 5.89485C43.3557 10.0783 33.4676 16.3535 24.9105 24.9105C16.3535 33.4676 10.0783 43.3557 5.89485 53.8143ZM28.3333 148.512C30.6152 150.604 33.0872 152.506 35.5593 154.217L154.217 35.5593C152.506 33.0872 150.604 30.6152 148.512 28.3333L28.3333 148.512ZM15.9732 134.821C17.6846 137.293 19.7763 139.765 21.868 142.047L142.047 21.868C139.765 19.7763 137.293 17.8747 134.821 15.9732L15.9732 134.821Z" fill="#0032B9"/>
</svg>
